<?xml version="1.0" standalone="no"?>
<!DOCTYPE svg PUBLIC "-//W3C//DTD SVG 20010904//EN"
 "http://www.w3.org/TR/2001/REC-SVG-20010904/DTD/svg10.dtd">
<svg version="1.0" xmlns="http://www.w3.org/2000/svg"
 width="800.000000pt" height="800.000000pt" viewBox="0 0 800.000000 800.000000"
 preserveAspectRatio="xMidYMid meet">
<metadata>
Created by potrace 1.11, written by Peter Selinger 2001-2013
</metadata>
<g transform="translate(0.000000,800.000000) scale(0.100000,-0.100000)"
fill="#000000" stroke="none">
<path d="M5888 7865 c-2 -1 -28 -5 -58 -8 -470 -51 -928 -530 -1369 -1432
-234 -477 -443 -992 -793 -1950 -60 -165 -124 -343 -143 -395 -18 -52 -36
-103 -40 -112 -7 -17 -25 -23 -105 -33 -25 -4 -56 -8 -70 -10 -14 -2 -50 -6
-80 -10 -30 -3 -71 -8 -90 -10 -118 -15 -594 -24 -655 -11 -11 2 -56 7 -100
10 -44 4 -91 9 -105 11 -202 30 -422 83 -579 141 -149 55 -347 158 -451 234
-161 119 -162 119 -215 115 -89 -7 -139 -65 -132 -153 3 -45 9 -58 43 -93 42
-43 193 -153 265 -194 231 -130 425 -207 681 -270 142 -35 271 -59 373 -70 33
-4 71 -8 84 -10 141 -23 617 -23 811 0 19 2 62 7 95 10 33 4 67 9 77 11 9 3
19 0 22 -5 4 -6 -57 -178 -134 -383 -77 -205 -142 -377 -144 -383 -2 -5 -7
-19 -11 -30 -4 -11 -39 -98 -77 -194 -83 -210 -246 -592 -259 -607 -5 -7 -35
-15 -65 -19 -31 -4 -66 -8 -78 -10 -11 -2 -39 -6 -61 -9 -22 -4 -51 -8 -65
-11 -14 -2 -41 -6 -60 -9 -30 -4 -106 -19 -220 -42 -74 -15 -270 -70 -375
-105 -588 -197 -1018 -517 -1143 -851 -29 -79 -33 -100 -37 -199 -10 -240 122
-460 338 -563 151 -72 269 -91 457 -72 511 50 974 526 1440 1479 50 101 67
127 84 128 32 2 104 6 208 13 92 6 666 8 743 2 22 -2 94 -7 160 -11 66 -3 134
-8 150 -9 17 -2 66 -6 110 -10 144 -13 180 -16 215 -20 34 -5 92 -12 175 -21
39 -5 93 -12 145 -20 14 -2 45 -6 70 -10 557 -80 1292 -242 1697 -376 61 -20
105 -29 128 -26 103 14 156 124 104 216 -30 54 -38 58 -384 160 -226 67 -710
177 -1080 245 -89 17 -343 58 -438 71 -27 4 -56 8 -65 10 -10 1 -44 6 -77 9
-33 4 -67 9 -75 11 -8 2 -46 7 -85 10 -38 4 -83 8 -100 10 -172 21 -401 38
-665 51 -168 7 -580 7 -712 0 -60 -4 -108 -5 -108 -3 0 2 18 46 41 98 115 265
339 839 500 1283 98 271 96 267 162 280 49 10 198 58 302 96 1101 409 2169
1467 2510 2487 50 149 88 309 101 433 2 25 6 59 9 75 5 37 6 268 1 315 -19
188 -60 314 -143 442 -99 152 -274 264 -458 294 -40 6 -192 13 -197 9z m207
-312 c184 -59 278 -204 300 -466 15 -170 5 -302 -39 -504 -21 -95 -69 -239
-126 -376 -36 -87 -155 -324 -175 -347 -6 -8 -15 -22 -19 -30 -15 -32 -90
-148 -151 -232 -25 -35 -53 -74 -62 -87 -38 -52 -167 -209 -231 -280 -385
-428 -842 -779 -1327 -1017 -134 -66 -435 -188 -443 -180 -1 2 4 21 12 42 16
43 87 239 146 404 21 58 51 141 68 185 16 44 40 107 52 140 30 84 179 474 195
510 7 17 38 95 70 175 32 80 66 163 76 185 9 22 38 90 64 150 300 700 602
1207 879 1471 109 105 120 114 195 162 165 106 366 143 516 95z m-3582 -5970
c-36 -71 -86 -161 -110 -201 -24 -41 -43 -76 -43 -78 0 -3 -42 -69 -94 -148
-325 -493 -613 -718 -930 -725 -111 -2 -176 9 -246 45 -135 68 -207 226 -167
365 77 262 453 536 977 713 104 34 344 100 411 111 19 3 41 8 49 10 8 2 33 7
55 10 22 3 60 10 85 14 86 16 85 22 13 -116z"/>
</g>
</svg>
